# xmcd
#
# Track frame offsets: 
#        150
#        15882
#        33262
#
# Disc length: 719 seconds
#
# Revision: 0
# Processed by: cddbd v1.5.2PL0 Copyright (c) Steve Scherf et al.
# Submitted via: ExactAudioCopyFreeDBPlugin 1.0
#
DISCID=1102cd03
DTITLE=Vintage Trouble - Nobody Told Me (Promo CD Single)
DYEAR=2011
DGENRE=Pop
TTITLE0=Nobody Told Me (Radio Edit Fade)
TTITLE1=Nobody Told Me (Radio Edit)
TTITLE2=Nobody Told Me (Album Version)
EXTD=
EXTT0=
EXTT1=
EXTT2=
PLAYORDER=
